#!OML:ASF F:\VICON\USERDATA\INSTALL\rory3\rory3.ASF
:FULLY-SPECIFIED
:DEGREES
141
root 0.622888294233038 17.752577555585788 32.70590306194615 1.2573255481383019 -1.4563771386121147 -1.146350399409483
lfemur -25.523065514698743 5.331153724076536 -19.387494645466752
ltibia 66.41241210059341
lfoot 0.7283766614086251 -8.830884817099168
ltoes -7.502654321468455
rfemur -10.249201010050696 4.606228552533745 29.909947532146774
rtibia 56.389257136055875
rfoot 2.40810418155679 -5.504909079913076
rtoes -0.5639532364402553
lowerback 14.803632417681342 1.2540169873517 3.370583519228906
upperback -1.0525832143827216 2.7712644309607866 1.9703236248889362
thorax -9.36277593170203 1.1237735457178513 -1.0208810275796403
lowerneck -19.821751423271195 -4.56488865945999 -2.4735291044593892
upperneck 12.529108360197684 -6.022995057190175 5.478214160730408
head 7.280136502405272 -2.6755807542059635 1.3839925597429958
lclavicle 2.9801515526439752e-15 1.1900897868484632e-16
lhumerus -49.01223723536048 -10.866002012263804 96.14171477717531
lradius 113.34725996058289
lwrist 34.153416805255745
lhand -20.75999959486386 2.83724348123347
lfingers 7.125019999999999
lthumb 5.603209682668167 32.738499840006426
rclavicle 2.9801381671163078e-15 1.1900166246856291e-16
rhumerus -44.64341057009854 12.139413257271926 -96.55913700263937
rradius 110.98240045965518
rwrist -15.386432702326852
rhand -15.727730772695299 38.441809322005035
rfingers 7.125019999999999
rthumb 10.630092128370908 8.400172465650364
142
root 0.6272705443868403 17.78844527990727 33.16431301081385 1.2988572141237649 -1.3510377377667664 -1.1487610321025201
lfemur -26.015010344938723 4.4514631467234675 -20.98192349171373
ltibia 62.390752987435896
lfoot 1.4930377770029626 -9.256237225909343
ltoes -8.073499144050334
rfemur -9.43900451019671 4.569935745159365 29.945801872293693
rtibia 56.98241970514592
rfoot 1.9472734339195772 -5.748489578940211
rtoes -0.6737367494251962
lowerback 14.809792524341951 1.3493496808209446 3.532057735374302
upperback -1.147348937225411 2.7559837134422134 1.8743617369237404
thorax -9.247927679862745 1.1927021924048193 -0.8204410216995724
lowerneck -19.816499575502053 -4.527156964299636 -2.4607526377409705
upperneck 12.490054295581498 -6.052833208075977 5.454245948762005
head 7.287226479100078 -2.626125452846092 1.4094418081812483
lclavicle 2.9801515526439752e-15 1.1900897868484632e-16
lhumerus -50.73545219310039 -10.937386991747605 95.81725943766232
lradius 113.87620360325657
lwrist 34.151258447459966
lhand -20.75700776465118 2.869179363414657
lfingers 7.125019999999999
lthumb 5.604279490127757 32.77867487132598
rclavicle 2.9801381671163078e-15 1.1900166246856291e-16
rhumerus -44.67476865327943 12.398266433813278 -96.64859265885333
rradius 111.26264378452022
rwrist -15.47812657449336
rhand -15.69878771736232 38.474604604967354
rfingers 7.125019999999999
rthumb 10.564724701409666 8.32810039263703
143
root 0.6283921921744854 17.808356876215306 32.87503489097878 1.278055618047636 -1.3947358328818975 -1.2301064810801394
lfemur -27.79817782244929 3.3785048865776153 -21.97877105232439
ltibia 58.348734147571875
lfoot 0.9859523881145472 -9.447264308566998
ltoes -8.457892611899956
rfemur -10.148346292916262 4.223394280790799 29.249552302304295
rtibia 58.21901474184491
rfoot 1.3301256092441283 -5.959323255304775
rtoes -0.7261661127765853
lowerback 14.787469259552024 1.4399316734106096 3.62628664923814
upperback -1.251884058360064 2.792307660935303 1.7565725687603029
thorax -9.23525408784316 1.2098621810376544 -0.7664685456785865
lowerneck -19.80906427548619 -4.469246272703062 -2.4351981608103666
upperneck 12.551677794438381 -5.9861330894467955 5.531064802838286
head 7.289936976105858 -2.613424984168969 1.4148390270579982
lclavicle 2.9801515526439752e-15 1.1900897868484632e-16
lhumerus -50.77659309035222 -10.910876008162255 95.85647730421458
lradius 113.96592062272288
lwrist 34.24906427737286
lhand -20.774602148280096 2.818810846904906
lfingers 7.125019999999999
lthumb 5.590626433910137 32.78186914465555
rclavicle 2.9801381671163078e-15 1.1900166246856291e-16
rhumerus -44.7017177924174 12.63844918703197 -96.74041209188194
rradius 111.3100675308493
rwrist -15.399651373982806
rhand -15.728731945224343 38.46557792137124
rfingers 7.125019999999999
rthumb 10.658400406098924 8.416291969638003
144
root 0.633855488897396 17.848503084365667 33.74893390413917 1.3496501467563502 -1.1884608364689253 -1.171002278857903
lfemur -24.45532523407252 3.4195592339519383 -22.16897916746
ltibia 54.61083773126494
lfoot 2.5663808854155277 -9.025338309589532
ltoes -8.97345502827343
rfemur -10.319164059476853 4.3767739823332885 29.21390105961762
rtibia 58.535044422749856
rfoot 1.2173948147345643 -5.938497307218819
rtoes -1.2620156621518066
lowerback 14.72413748512946 1.4699956794026492 3.6027640602552804
upperback -1.3491892264876926 2.7957395255098954 1.636383393928896
thorax -9.29622390615121 1.065738156199285 -0.9540373910266303
lowerneck -19.841432477491132 -4.449498957668141 -2.435383595390546
upperneck 12.550577629419829 -5.941188746345554 5.5255362422396495
head 7.325559755670224 -2.586877509292734 1.4408259323803647
lclavicle 2.9801515526439752e-15 1.1900897868484632e-16
lhumerus -51.786674877372135 -11.088269288366185 95.73019456097146
lradius 113.6460599109092
lwrist 34.30344041126509
lhand -20.822130208475357 2.8083654767620185
lfingers 7.125019999999999
lthumb 5.588994241715569 32.752308479529475
rclavicle 2.9801381671163078e-15 1.1900166246856291e-16
rhumerus -44.87609599339386 12.799815174104095 -96.85477158149908
rradius 111.06492815854216
rwrist -15.259198215203076
rhand -15.694955052413933 38.48418645525708
rfingers 7.125019999999999
rthumb 10.600699456236338 8.336994273696472
